# xmcd
#
# Track frame offsets: 
#        150
#        5327
#        36660
#        68772
#        88130
#        128942
#        179263
#
# Disc length: 2781 seconds
#
# Revision: 0
# Processed by: cddbd v1.5.2PL0 Copyright (c) Steve Scherf et al.
# Submitted via: ExactAudioCopyFreeDBPlugin 1.0
#
DISCID=5c0adb07
DTITLE=Eric Clapton - Mr. Robert Johnson [CD 1)
DYEAR=2010
DGENRE=Blues
TTITLE0=Introduction
TTITLE1=Layla
TTITLE2=Worried Life Blues
TTITLE3=Tulsa Time
TTITLE4=Early In The Morning
TTITLE5=Badge
TTITLE6=Wonderful Tonight
EXTD=
EXTT0=
EXTT1=
EXTT2=
EXTT3=
EXTT4=
EXTT5=
EXTT6=
PLAYORDER=
